<svg xmlns="http://www.w3.org/2000/svg" viewBox="0 0 100 100">
    <defs>
        <style>
            .cls-1 {
                fill: #d33;
            }
            .cls-2 {
                fill: #e6e6e6;
            }
            .cls-3 {
                fill: none;
                stroke: #e6e6e6;
                stroke-linecap: round;
                stroke-miterlimit: 10;
                stroke-width: 5px;
            }
        </style>
    </defs>
    <title>sign-fire</title>
    <g id="Layer_1">
        <circle class="cls-1" cx="50" cy="50" r="47.5"/>
        <path class="cls-2"
              d="M50,5A45,45,0,1,1,5,50,45.05,45.05,0,0,1,50,5m0-5a50,50,0,1,0,50,50A50,50,0,0,0,50,0Z"/>
        <g id="sign">
            <path id="bottom" class="cls-3"
                  d="M63.5,72.5s8-6,8-14-8-10-8-18c0-7,8-12,8-12"/>
            <path id="middle" class="cls-3"
                  d="M46.5,72.5s8-6,8-14-8-10-8-18c0-7,8-12,8-12"/>
            <path id="top" class="cls-3"
                  d="M29.5,72.5s8-6,8-14-8-10-8-18c0-7,8-12,8-12"/>
        </g>
    </g>
</svg>