<svg xmlns="http://www.w3.org/2000/svg" viewBox="0 0 100 100">
    <defs>
        <style>
            .cls-1 {
                fill: #ff931e;
            }
            .cls-2 {
                fill: #e6e6e6;
            }
            .cls-3 {
                fill: none;
                stroke: #e6e6e6;
                stroke-linecap: round;
                stroke-miterlimit: 10;
                stroke-width: 5px;
            }
        </style>
    </defs>
    <title>sign-air</title>
    <g id="Layer_1">
        <circle class="cls-1" cx="50" cy="50" r="47.5"/>
        <path class="cls-2"
              d="M50,5A45,45,0,1,1,5,50,45.05,45.05,0,0,1,50,5m0-5a50,50,0,1,0,50,50A50,50,0,0,0,50,0Z"/>
        <path class="cls-3"
              d="M37.52,71a25.34,25.34,0,0,1,0-35.83,20.27,20.27,0,0,1,28.66,0,16.22,16.22,0,0,1,0,22.93,13,13,0,0,1-18.34,0,10.38,10.38,0,0,1,0-14.67,8.3,8.3,0,0,1,11.74,0,6.65,6.65,0,0,1,0,9.39"/>
    </g>
</svg>